# xmcd CD database file
#
# Track frame offsets:
#	150
#	16842
#	41222
#	61140
#	83555
#	103825
#	124830
#	146817
#
# Disc length: 2213 seconds
#
# Revision: 0
# Processed by: cddbd v1.5.1PL0 Copyright (c) Steve Scherf et al.
# Submitted via: CDex 1.51
#
DISCID=6808a308
DTITLE=SweetS - Keep on movin'
DYEAR=2005
DGENRE=JPop
TTITLE0=countdown
TTITLE1=registance〜マケナイキモチ〜
TTITLE2=Sky
TTITLE3=snow crystals
TTITLE4=Grow into shinin' stars
TTITLE5=into the daylight〜ヒカリ射す方へ〜
TTITLE6=oursong〜別れの詩〜
TTITLE7=未来へ
EXTD=YEAR: 2005
EXTT0=
EXTT1=
EXTT2=
EXTT3=
EXTT4=
EXTT5=
EXTT6=
EXTT7=
PLAYORDER=
